<?xml version="1.0" encoding="UTF-8"?>
<svg id="_Слой_2" data-name="Слой 2" xmlns="http://www.w3.org/2000/svg" viewBox="0 0 1047.34 290.28">
  <defs>
    <style>
      .cls-1 {
        fill: #ff7001;
      }
    </style>
  </defs>
  <g id="_Слой_1-2" data-name="Слой 1">
    <g>
      <path class="cls-1" d="m358.02,167.67c-6.65.11-13.6-1.06-20.63-1.98-10.17-1.33-19.26-5.22-28.21-9.54-5.42-2.62-10.33-6.3-15.36-9.66-1.6-1.07-2.09-2.77-1.05-4.67,2.27-4.18,5.08-8.05,7.07-12.4.8-1.73,1.76-2.39,3.69-.6,6.39,5.9,13.74,10.21,21.98,13.29,5.98,2.24,11.94,4.25,18.18,5.51,2.21.45,4.41.85,6.69.9,4.36.1,8.74.73,13.08.54,6.99-.3,13.94-1.28,20.18-4.76,5.61-3.12,10.78-6.9,11.83-13.82.94-6.14,1.24-11.97-2.25-18.02-3.48-6.03-8.94-8.46-14.44-11.09-8.46-4.04-17.65-6.05-26.71-8.23-8.79-2.12-17.55-4.38-25.98-7.57-8.52-3.23-16.52-7.64-22.25-15.1-2.67-3.47-4.16-7.43-5.12-11.77-.88-3.95-1.15-7.84-1.01-11.79.59-16.97,8.12-29.98,22.87-38.46,9.03-5.19,18.91-7.84,29.43-7.82,3.96,0,7.88-.86,11.88-.57,9.61.72,18.96,2.48,27.98,6.07,7,2.79,13.4,6.49,19.45,10.91,1.54,1.13,2.03,1.99.86,3.85-2.61,4.12-4.95,8.41-7.31,12.68-.77,1.4-1.4,1.71-2.67.51-7.89-7.41-17.65-11.14-27.94-13.6-7.43-1.77-14.95-2.02-22.64-1.42-6.24.49-12.21,1.29-17.73,4.3-9.27,5.05-12.65,13.16-12.33,23.36.23,7.45,2.97,13.5,9.53,17.16,4.08,2.28,8.15,4.7,13.14,5.2,2.75.28,5.4,1.9,8.25,2.6,10.91,2.67,21.87,5.23,32.59,8.54,9.15,2.83,18.03,6.67,24.99,13.61,5.25,5.24,8.13,11.59,9.83,18.98,1.92,8.31.61,16.11-1.61,23.75-2.53,8.69-8.13,15.68-15.68,20.76-4.2,2.83-8.91,4.84-13.72,6.55-9.21,3.28-18.76,3.93-28.88,3.8Z"/>
      <path class="cls-1" d="m928.4,127.13c0-11.87.07-23.75-.06-35.62-.03-2.72.78-3.56,3.52-3.55,21.99.1,43.98-.04,65.98.1,9.13.06,15.98-3.96,21-11.11,8.43-11.99,9.94-25.03,4.09-38.46-2.96-6.8-7.6-12.37-14.72-15.81-4.48-2.16-9.03-3.17-13.78-3.23-13.69-.17-27.39,0-41.08-.11-2.73-.02-3.85.74-3.82,3.61.1,13.07.03,26.14.03,39.21q0,4.87-4.98,4.87c-4.5,0-9-.05-13.49.02-2.11.03-2.78-.61-2.76-2.93.13-19.65.08-39.31.08-58.96q0-4.22,4.37-4.22c20.99,0,41.99-.1,62.98.03,22.84.13,38.81,12.96,47.49,32.69,4.75,10.81,5.08,22.25,2.53,33.71-2.2,9.89-7.19,18.32-14.16,25.62-6.25,6.55-13.94,10.74-22.65,12.8-3.71.88-7.69.87-11.55.9-14.99.09-29.99.1-44.98-.02-2.41-.02-2.95.6-2.93,2.99.12,17.56.02,35.12.11,52.68.01,2.74-.66,3.86-3.66,3.71-5.08-.26-10.19-.13-15.29-.04-1.8.03-2.32-.48-2.3-2.35.1-12.17.05-24.34.05-36.51Z"/>
      <path class="cls-1" d="m619.43,1.86c-3.69,5.91-5.42,12.24-8.64,18.02-1.96,3.52-3.03,7.93-4.64,11.86-2.63,6.42-5.65,12.68-8.42,19.04-.97,2.22-1.17,4.93-2.27,6.83-1.94,3.36-3.09,7.02-4.96,10.36-1.02,1.83-.96,3.42-.1,5.42,6.36,14.77,12.54,29.61,18.79,44.42.53,1.26.72,2.48.07,3.72-3.05,5.88-6.1,11.75-9.17,17.62-.17.33-.51.58-.97,1.08-7.11-16.39-14.14-32.58-21.49-49.52-2.15,4.75-3.98,8.68-5.71,12.65-3.87,8.86-7.63,17.76-11.53,26.61-3.5,7.93-7.47,15.67-10.52,23.76-1.32,3.49-3.54,6.57-4.34,10.22-.38,1.76-1.34,2.12-2.96,2.09-4.7-.09-9.4-.15-14.09.03-1.9.07-2.71-.8-3.32-2.27-6.89-16.6-13.79-33.18-20.65-49.79-3.61-8.74-6.88-17.63-10.77-26.24-4.13-9.13-8.05-18.36-11.74-27.66-5.11-12.9-10.71-25.6-15.85-38.49-2.49-6.23-5.12-12.42-7.79-18.58-.64-1.48-.74-2.16,1.2-2.14,6.2.06,12.4.09,18.59-.03,1.74-.03,2.1.92,2.61,2.18,5.78,14.45,11.62,28.88,17.42,43.33,10.95,27.26,21.88,54.53,32.82,81.79,1.43,3.57,2.83,7.16,4.27,10.73.18.44.45,1.08.8,1.16.68.17.92-.52,1.15-1.06,2.28-5.33,5.21-10.35,6.69-16.08.61-2.36,2.45-4.64,3.62-7.05,8.37-17.19,15.86-34.77,23.84-52.13,2.38-5.18,4.94-10.3,6.96-15.62,1.02-2.68,2.98-4.87,3.82-7.36,2.4-7.16,6.04-13.73,8.95-20.63,2.4-5.67,5.16-11.19,7.63-16.84.64-1.47,1.65-1.45,2.86-1.45,5.7.01,11.39,0,17.84,0Z"/>
      <path class="cls-1" d="m619.85,166.02c-2.3,0-4.6,0-6.9,0-3.51-.02-4.64-1.85-3.39-5.16,2.15-5.68,5.37-10.85,7.83-16.37,3.23-7.26,6.41-14.55,9.22-21.97,6.54-17.26,13.8-34.23,20.47-51.43,5.7-14.71,11.87-29.23,17.45-43.97,3.04-8.03,6.7-15.82,9.32-24,.48-1.49,1.28-2.19,2.99-2.16,6,.1,11.99.05,17.99.03,1.14,0,2.36.06,2.87,1.13.49,1.04-.13,1.84-1.29,2.25-.35.12-.66.76-.74,1.21-.72,4.25-3.56,7.62-4.84,11.58-2.61,8.07-6.69,15.49-9.8,23.35-5.23,13.22-10.78,26.31-16.23,39.43-3.72,8.94-7.8,17.74-11.14,26.82-1.84,5.01-4.14,9.85-6.05,14.82-2.09,5.44-4.68,10.83-7.1,16.21-3.78,8.41-7.75,16.78-10.74,25.48-1.08,3.13-2.5,2.74-4.54,2.77-1.8.02-3.6,0-5.4,0Z"/>
      <path class="cls-1" d="m873.75,165.95c-7.36,0-14.25,0-21.14,0-1.25,0-1.9-.58-2.36-1.79-3.87-10.14-7.7-20.3-11.81-30.34-1.81-4.42-3.84-8.75-5.32-13.3-.79-2.42-2.34-3.03-4.89-3-14.5.15-28.99.07-43.49.07-5.54,0-5.49.02-3.33-5.04,1.07-2.51,1.96-5.1,2.84-7.69.85-2.51,2.2-3.75,5.16-3.71,11.39.18,22.79.07,34.19.07,3.53,0,3.19.11,2.1-3.25-1.87-5.79-4.43-11.3-6.51-17-2.04-5.59-4.72-10.95-6.7-16.55-1.52-4.3-2.85-8.67-5.01-12.68-1.62-3.02-.63-5.91.46-8.37,1.91-4.32,3.31-8.83,5.33-13.12.77-1.64.41-3.85,2.42-5.52,19.35,47.08,38.59,93.88,58.05,141.21Z"/>
      <path class="cls-1" d="m732.58,165.96c-2.6,0-5.2.05-7.8-.01-2.64-.07-3.36-1.39-2.44-3.9,3.83-10.48,8.69-20.55,12.82-30.9,4.27-10.69,8.19-21.52,12.84-32.04,3.52-7.99,6.86-16.04,10.18-24.11,3.87-9.41,7.09-19.11,11.35-28.34,4.31-9.37,7.81-19.05,11.98-28.46,2.08-4.71,3.45-9.71,5.74-14.34.91-1.84,1.86-3.16,4.38-3,4.18.27,8.39.07,12.59.08,1.11,0,1.77-.03,1.13,1.58-1.67,4.23-2.95,8.61-4.52,12.88-3.17,8.6-6.62,17.08-9.86,25.65-2.14,5.66-4.01,11.51-6.35,17.05-3.45,8.19-6.56,16.51-9.94,24.73-4.77,11.61-9.04,23.42-13.62,35.1-5,12.76-10.15,25.46-15.14,38.23-.97,2.49-2.08,4.97-2.5,7.67-.26,1.64-1.44,2.19-3.04,2.16-2.6-.05-5.2-.01-7.8-.01Z"/>
      <path class="cls-1" d="m55,.93c17.39,0,34.78.04,52.17-.05,2.3-.01,3.17.48,3.02,2.97-.24,4.08-.29,8.19.01,12.26.22,2.95-.91,3.35-3.51,3.34-27.18-.09-54.37-.06-81.55-.05q-4.05,0-4.05,4.07c0,8.68-.05,17.36.04,26.03.02,1.9-.48,2.66-2.51,2.62-5.39-.11-10.79-.1-16.19,0-1.88.04-2.41-.68-2.4-2.45C.08,34.21.1,18.75.02,3.29,0,.78,1.48.92,3.13.92c17.29,0,34.58,0,51.87,0Z"/>
      <path class="cls-1" d="m49.62,73.14c15.39,0,30.78.05,46.17-.05,2.28-.02,2.94.65,2.86,2.86-.16,4.38-.1,8.78-.08,13.16,0,1.24.14,2.29-1.7,1.44-.66-.31-1.58-.1-2.37-.1-23.49,0-46.97.03-70.46-.06-2.34,0-3.05.52-3.01,2.94.14,10.07,0,20.15.11,30.22.02,2.16-.49,3.01-2.82,2.94-5.19-.16-10.4-.15-15.59,0-2.18.06-2.72-.75-2.71-2.77.06-15.86.07-31.72-.01-47.58-.01-2.4.81-3.04,3.14-3.03,15.49.09,30.98.05,46.47.05Z"/>
      <path class="cls-1" d="m56.21,147.49c17.79,0,35.58.03,53.37-.05,2.05,0,2.84.4,2.75,2.62-.18,4.28-.21,8.58,0,12.86.13,2.53-.69,3.1-3.14,3.09-30.38-.09-60.77-.06-91.15-.06-5.2,0-10.4-.07-15.59.04-1.84.04-2.46-.59-2.42-2.4.09-4.39.16-8.78-.02-13.16-.1-2.45.81-2.99,3.13-2.98,17.69.09,35.38.05,53.07.05Z"/>
      <path class="cls-1" d="m202.6,111.91c-10.4,0-20.79-.07-31.19.05-2.26.03-2.91-.57-2.82-2.83.18-4.48.13-8.98.02-13.47-.04-1.76.36-2.41,2.29-2.41,21.39.07,42.79.06,64.18.01,1.68,0,2.26.48,2.23,2.19-.1,4.69-.15,9.38.02,14.07.08,2.14-.83,2.42-2.63,2.41-10.7-.06-21.39-.03-32.09-.03Z"/>
      <path class="cls-1" d="m558.87,50.88c-5.06-8.93-8.58-18.12-12.92-26.92-3.3-6.68-6.27-13.55-9.44-20.32-.72-1.54-.26-1.81,1.23-1.8,5.39.05,10.78.06,16.17,0,1.29-.02,1.95.44,2.47,1.61,3.79,8.47,7.63,16.91,11.48,25.35.36.78.46,1.44.08,2.26-3.02,6.53-6,13.09-9.08,19.83Z"/>
      <path class="cls-1" d="m983.42,267.44c-5.57,8.8-18.27,9.76-24.78,3.66-7.38-6.92-7.7-19.34-.55-26.42,5.72-5.66,18.7-6.74,25.43,2.98,0-2.09.12-3.63-.03-5.14-.19-1.95.71-2.27,2.43-2.31,1.87-.05,2.36.53,2.34,2.37-.09,9.67.05,19.35-.07,29.02-.11,9.34-3.81,15.06-11.05,17.49-7.73,2.59-14.62.8-21.1-3.8-1.4-1-.48-1.4.03-1.99.66-.75.81-2.51,2.58-1.15,3.18,2.46,6.68,4.19,10.87,4.14,9.68-.12,14.49-6.81,13.92-13.91-.11-1.36-.02-2.74-.02-4.94Zm-12.65-23.08c-8.41.14-13.19,5.24-13.28,13.61-.08,7.21,6,13.77,13.64,13.37,7-.37,12.69-6.42,12.32-13.93-.42-8.4-5.79-13.57-12.67-13.05Z"/>
      <path class="cls-1" d="m516.7,271.54c3.39-9.65,6.62-18.41,9.5-27.29,1.05-3.22,2.69-4.29,5.89-3.19-2,5.5-3.79,11.21-6.13,16.68-2.39,5.56-3.84,11.43-6.23,16.98-.79,1.84-1.93,1.92-3.47,1.99-1.51.08-2.17-.41-2.72-1.96-3.35-9.47-6.88-18.88-10.48-28.65-1.92,5.2-3.96,10.09-5.52,15.13-1.26,4.1-3.48,7.86-3.93,12.29-.16,1.64-1.69,3.15-4.06,3.25-2.06.09-2.88-.95-3.45-2.49-4.09-11.11-8.15-22.23-12.22-33.36.08-.03.24-.1.41-.14,3.55-.87,4.8,1.04,5.82,4.12,2.9,8.79,6.13,17.47,9.44,26.78,2.36-6.65,4.53-12.76,6.69-18.86,1.2-3.4,2.64-6.74,3.49-10.22.61-2.5,2.28-1.61,3.7-1.84,1.61-.27,2.47.33,3.02,1.93,3.11,9,6.33,17.97,9.51,26.95.12.35.26.69.73,1.9Z"/>
      <path class="cls-1" d="m708.14,252.21c0-7.18.06-14.36-.04-21.54-.03-1.91.45-2.55,2.47-2.53,9.19.11,18.38.1,27.57,0,1.81-.02,2.39.41,2.38,2.3-.02,1.84-.75,2.07-2.31,2.06-7.59-.06-15.19.03-22.78-.07-1.94-.03-2.62.49-2.55,2.49.15,4.18.15,8.38,0,12.56-.07,1.93.64,2.31,2.4,2.29,6.59-.09,13.19.01,19.78-.07,1.68-.02,2.45.21,2.47,2.21.02,2.12-.98,2.14-2.54,2.13-6.49-.05-12.99.03-19.48-.06-1.83-.03-2.7.29-2.63,2.41.16,4.48.13,8.97,0,13.46-.05,1.9.67,2.35,2.43,2.33,7.89-.07,15.79,0,23.68-.06,1.75-.01,2.72.18,2.67,2.38-.05,2.16-1.14,2.09-2.65,2.09-9.39-.03-18.78-.1-28.17.04-2.36.04-2.8-.77-2.76-2.91.13-7.18.05-14.36.05-21.54Z"/>
      <path class="cls-1" d="m393.08,252.46c0-7.28.07-14.56-.05-21.83-.03-1.95.51-2.52,2.48-2.48,7.42.16,14.82-.1,22.21,1.14,7.4,1.25,11.56,6.99,11.97,13.66.52,8.29-3.18,14.2-10.38,16.91-4.38,1.65-8.95,1.05-13.46,1.19-2.57.08-5.91-1.1-7.49.48-1.58,1.59-.37,4.92-.48,7.49-.07,1.59-.14,3.2.02,4.78.23,2.32-1.04,2.78-2.98,2.93-2.46.19-1.82-1.5-1.83-2.74-.03-7.18-.01-14.35-.02-21.53Zm14.08,4.23c2.12-.11,4.42-.22,6.71-.35,5.9-.34,10.69-4.48,11.02-9.38.65-9.65-2.98-12.65-9.45-13.95-5.33-1.07-10.76-.33-16.14-.53-1.59-.06-1.43.99-1.43,1.99,0,4.39-.06,8.77.02,13.16.05,2.87-1.23,6.64.47,8.38,1.85,1.9,5.67.29,8.8.68Z"/>
      <path class="cls-1" d="m6.72,244.87c0,4.58-.2,9.17.04,13.74.49,9.38,8.31,16.26,17.94,14.12,9.34-2.08,12.62-6.66,12.72-16.46.08-8.47.08-16.95-.03-25.42-.03-2.03.43-2.7,2.6-2.75,2.34-.05,2.23,1.13,2.26,2.74.15,9.34.25,18.71-.03,28.01-.12,3.89-1.51,8.32-5.28,11.88-4.41,4.17-9.22,6.55-14.72,6.38-8.51-.26-18.18-3.83-19.69-15.52-.28-2.15-.52-4.28-.49-6.47.1-8.27.11-16.55-.01-24.82-.03-2.15,1.03-2.11,2.57-2.14,1.55-.03,2.35.21,2.31,2.06-.12,4.88-.04,9.77-.04,14.65h-.14Z"/>
      <path class="cls-1" d="m292.04,247.72c2.56-5.8,7.89-6.66,13.11-7.37,7.18-.98,13.22,4.34,14.19,11.62.99,7.45.17,14.9.54,22.34.11,2.14-1.02,2.37-2.78,2.45-1.9.08-2.04-.82-2.03-2.33.06-5.79-.12-11.58.09-17.36.1-2.86-.76-5.47-1.47-8.09-.57-2.11-2.95-3.16-4.8-3.52-4.1-.79-8.45-1.54-12.21,1.31-3.34,2.53-5.14,5.86-5.1,10.16.06,5.88-.09,11.77,0,17.66.03,1.91-.89,2.06-2.38,2.05-1.45,0-2.39-.04-2.39-2,.07-15.86.08-31.73,0-47.59-.01-2.1,1.16-1.79,2.46-1.87,1.56-.09,2.35.22,2.31,2.08-.11,5.98-.06,11.97-.03,17.96,0,.74-.28,1.55.47,2.51Z"/>
      <path class="cls-1" d="m830.9,247.44c2.35-.25,1.85-2.21,2.79-3.15,2.16-2.16,4.88-2.79,7.67-3.35,6.43-1.27,12.81.44,15.82,5.71,1.55,2.72,1.84,5.8,1.96,8.77.24,6.17,0,12.36.12,18.54.04,2.21-1.08,2.57-2.87,2.76-2.4.25-1.92-1.35-1.92-2.67-.01-6.18.08-12.37-.05-18.55-.08-3.64-.7-7.34-4.34-9.21-4.57-2.36-9.57-2.3-13.89.19-3.82,2.2-5.32,6.23-5.24,10.78.09,5.78-.09,11.57,0,17.35.03,1.94-.96,1.99-2.42,2.02-1.51.03-2.36-.15-2.35-2.04.07-15.76.06-31.51,0-47.27,0-1.69.47-2.27,2.17-2.17,1.49.09,2.64-.09,2.6,2.11-.14,6.67-.05,13.34-.05,20.17Z"/>
      <path class="cls-1" d="m207.36,259.51c5.12-5.3,10.35-10.5,15.31-15.95,2.17-2.38,4.44-3.45,8.15-2.44-2.73,2.78-5.28,5.34-7.8,7.95-1.72,1.78-4.59,3.52-4.74,5.45-.15,1.91,2.47,4.03,3.87,6.06,2.94,4.26,5.91,8.51,8.8,12.81.61.91,1.91,1.77,1.07,3.11-.49.78-4.47.04-5.14-.92-2.6-3.73-5.15-7.49-7.72-11.24-.68-.99-1.33-1.99-2.01-2.98q-2.69-3.95-5.92-.46c-.14.15-.26.31-.41.43-4.28,3.29-4.93,7.8-4.33,12.73.22,1.85-.3,2.61-2.39,2.62-2.19.01-2.36-.95-2.36-2.7.05-15.46.07-30.93-.02-46.39-.01-2.05.69-2.41,2.56-2.46,2-.05,2.25.74,2.24,2.44-.07,10.45-.03,20.91-.03,31.36.29.19.59.38.88.57Z"/>
      <path class="cls-1" d="m348.09,259.93c-4.3,0-8.6.13-12.89-.05-2.12-.09-2.52.94-2.04,2.46,3.22,10.05,13.71,14.25,22.83,7.36,1.32-1,2.18-1.94,3.7-.32.97,1.03,1.11,1.62-.02,2.6-7.32,6.31-19.45,6.89-26.26-.17-9.42-9.77-5.44-27.68,6.8-30.62,9.26-2.23,18.76-.04,21.8,9.64.47,1.48.88,3.02,1.05,4.56.49,4.56.44,4.56-4.16,4.56-3.6,0-7.2,0-10.8,0Zm-2.09-3.59c2.69,0,5.38,0,8.07,0,5.43,0,6.16-1.33,3.41-6.23-.05-.09-.1-.17-.15-.26-2.73-4.57-7.96-6.58-14.31-5.48-4.27.74-9.18,5.79-9.86,10.15-.21,1.39.31,1.9,1.79,1.85,3.68-.11,7.37-.03,11.05-.03Z"/>
      <path class="cls-1" d="m1016.38,259.93c-4.29,0-8.59,0-12.88,0-1.4,0-2.31-.24-1.74,2.05,2.36,9.57,13.13,15.12,23.44,7.56,1.15-.84,1.88-1.53,3.14-.11.99,1.12.92,1.65-.21,2.58-5.42,4.44-11.62,5.85-18.27,4.07-6.87-1.84-10.92-6.62-12.64-13.56-2.46-9.86,4.17-20.61,15.2-22.27,11.17-1.69,20.18,6.81,19.03,18.19-.15,1.47-.82,1.52-1.9,1.51-4.39-.03-8.78-.01-13.18,0Zm11.29-3.6c-.21-1.2-.32-1.97-.48-2.73-.82-3.93-2.85-7.33-6.71-8.43-8.81-2.51-15.44-.57-18.86,9.46-.48,1.4.04,1.73,1.36,1.72,8.17-.03,16.34-.02,24.69-.02Z"/>
      <path class="cls-1" d="m553.75,259.93c-4.3,0-8.6.04-12.9-.02-1.69-.02-2.21.18-1.63,2.18,3.11,10.81,14.17,14.42,23.33,7.45.98-.74,1.64-1.66,2.92-.27,1.04,1.13,1.23,1.77-.07,2.81-5.5,4.41-11.68,5.79-18.43,3.9-6.64-1.85-10.5-6.44-12.26-13.05-2.59-9.74,3.67-19.74,11.45-21.71,9.03-2.29,18.54.03,21.61,9.14.53,1.56.92,3.2,1.11,4.84.55,4.73.5,4.73-4.32,4.73-3.6,0-7.2,0-10.8,0Zm-2.18-3.59c2.89,0,5.79,0,8.68,0,4.94,0,5.51-.93,3.4-5.56-.21-.45-.46-.88-.73-1.3-2.9-4.44-8.06-6.48-14.22-5.02-4.75,1.12-7.69,4.41-9.32,9.08-.95,2.74.11,2.91,2.32,2.83,3.29-.12,6.59-.03,9.88-.03Z"/>
      <path class="cls-1" d="m893.91,271.32c-5.2,5.25-11.18,6.51-17.7,4.78-5.13-1.36-8.56-6.71-7.97-11.5.55-4.47,4.67-7.5,10.16-8.36,4.49-.7,8.94-.36,13.41-.46,1.56-.04,2.25-.25,2.28-2.07.11-6.42-2.66-9.21-9.12-9.4-3.96-.11-7.56.67-10.73,2.97-1.59,1.15-2.16.35-3.01-.81-1.09-1.49.1-1.85.99-2.42,5.71-3.66,11.88-4.61,18.38-2.8,5.48,1.53,8.07,4.89,8.23,10.91.2,7.38.06,14.76.12,22.15.01,1.59-.52,2.31-2.22,2.45-1.68.14-2.31-.65-2.55-2.03-.17-.97-.17-1.97-.28-3.39Zm-6.89-12c-2.85.04-5.69-.03-8.53.53-2.56.5-4.62,1.54-5.31,4.1-.75,2.79,0,5.33,2.35,7.2,5.45,4.33,16.59.8,18.37-5.97,1.16-4.38.2-5.85-4.2-5.86-.9,0-1.79,0-2.69,0Z"/>
      <path class="cls-1" d="m471.07,258.35c.76,10.2-7.4,18.87-19.55,18.43-9.39-.34-16.99-8.17-16.98-18.7,0-9.77,7.48-18.04,17.71-17.86,10.97.2,19.14,6.21,18.83,18.12Zm-4.8-.03c.91-8.48-5.37-14-13.33-13.99-7.79.01-13.87,5.55-13.5,14.72.35,8.53,5.42,13.27,13.33,13.91,7.92.65,13.49-5.83,13.5-14.65Z"/>
      <path class="cls-1" d="m133.44,276.68c-10.37.42-18.41-9.12-17.44-19.58.96-10.37,7.1-16.9,18.21-16.78,10.38.11,19,5.37,18.25,19.99-.5,9.71-7.86,16.77-19.02,16.36Zm14.27-18.13c.95-8.47-5.29-14.2-13.4-14.23-6.61-.02-13.66,4.37-13.6,15.36.03,6.54,6.94,13.46,13.53,13.42,7.95-.05,13.48-6.03,13.46-14.56Z"/>
      <path class="cls-1" d="m655.85,257.96c.98,12.58-9.31,18.71-17.83,18.83-12,.17-19.01-9.72-18.6-18.48.53-11.38,7.52-18.01,18.96-18.06,10.56-.05,18.48,8.37,17.47,17.71Zm-18.49-13.66c-7.7.16-13.53,6.66-13.3,14.81.2,7.34,7.12,14.28,13.95,13.98,7.91-.35,14.16-6.96,13.52-15.02-.71-8.91-4.56-13.11-14.16-13.78Z"/>
      <path class="cls-1" d="m916.13,247.42c4.22-7.13,14.78-8.83,21.36-5.65,4.96,2.4,6.68,6.92,6.82,12.05.19,6.88.07,13.76.12,20.64.02,2.2-1.54,2.07-3.03,2.25-1.87.22-1.8-.9-1.79-2.19.03-5.88.07-11.77-.02-17.65-.03-1.95-.24-3.93-.66-5.83-.77-3.51-4.39-6.08-8.23-6.08-10.49,0-14.56,4.1-14.57,14.62,0,4.89-.07,9.78.04,14.66.04,1.79-.45,2.46-2.34,2.42-1.68-.04-2.47-.26-2.46-2.26.1-10.67.08-21.34.01-32.01-.01-1.73.55-2.22,2.22-2.17,1.57.05,2.75.07,2.55,2.18-.16,1.66-.03,3.35-.03,5.02Z"/>
      <path class="cls-1" d="m60.21,247.74c2.61-5.98,8.04-6.78,13.42-7.52,7.66-1.05,14.31,4.4,14.71,12.39.36,7.26.14,14.54.27,21.81.04,2.24-1.31,2.21-2.93,2.32-2.09.13-1.9-1.18-1.89-2.5,0-6.18.05-12.36-.02-18.54-.04-3.64-1.1-6.86-4.26-9.11-4.02-2.86-8.34-2.02-12.42-.64-3.73,1.26-5.69,4.53-6.34,8.31-1.13,6.52-.38,13.12-.49,19.68-.03,2.06-.68,2.86-2.78,2.81-1.5-.04-1.85-.63-1.84-1.97.03-10.76.05-21.53-.01-32.29-.01-1.9,1.11-1.72,2.33-1.72,1.22,0,2.44-.2,2.29,1.72-.13,1.74-.03,3.5-.03,5.25Z"/>
      <path class="cls-1" d="m763.66,261.17c-3.36,4.64-6.52,8.96-9.63,13.33-.65.92-1.38,1.74-2.43,2-1.12.28-2.57.72-3.37-.28-.87-1.09.59-1.83,1.13-2.6,3.24-4.67,6.52-9.31,9.92-13.87,1.07-1.44,1.11-2.41.02-3.88-3.55-4.8-6.93-9.72-10.56-14.85,3.19-.67,5.55-.5,7.33,2.58,1.88,3.27,4.35,6.2,6.43,9.36.99,1.5,1.6,1.29,2.51-.03,2.19-3.21,4.72-6.22,6.64-9.58,1.64-2.86,3.78-2.95,6.94-2.32-3.3,4.71-6.27,9.28-9.61,13.56-1.83,2.34-1.98,3.96-.05,6.35,3.18,3.96,5.96,8.23,8.83,12.43.63.93,2.51,2.28,1.2,3-1.3.71-3.69,1.19-5.1-.85-1.82-2.62-3.67-5.22-5.51-7.82-1.49-2.09-2.98-4.18-4.68-6.55Z"/>
      <path class="cls-1" d="m176.66,276.67c-11.65.94-20.38-10.97-17.66-22.16,1.59-6.55,4.77-11.56,11.44-13.28,6.33-1.63,12.68-1.34,18.27,2.77.73.54,2.29.95.97,2.44-.97,1.11-2.08,2.2-3.52,1.14-3.66-2.71-7.51-3.17-12.06-2.79-7.08.6-12.48,9.77-10.52,16.84,2.71,9.76,9.78,12.57,18.73,10.19,1.7-.45,3.36-1.6,4.68-2.82,1.6-1.48,2.21-.13,3.12.64,1.5,1.26.11,1.91-.65,2.49-3.84,2.94-7.98,5.11-12.8,4.54Z"/>
      <path class="cls-1" d="m800.38,276.73c-8.6.51-15.13-6.86-16.69-13.08-2.69-10.77,2.96-19.36,10.07-21.94,6.81-2.47,13.5-1.77,19.61,2.47.98.68,1.82,1.32.52,2.49-.87.78-1.18,2.17-2.97.84-8.25-6.11-19.65-3.1-22.4,6.21-1.63,5.51-.87,10.56,3.03,14.8,3.68,4,8.49,4.82,13.67,3.69,2.34-.51,4.57-1.4,6.28-3.17,1.02-1.05,1.77-.88,2.69.15.94,1.06.86,1.93-.15,2.81-3.73,3.26-8.08,4.81-13.65,4.74Z"/>
      <path class="cls-1" d="m666.72,260.65c0-4.48-.05-8.97.03-13.45.03-1.56-.23-2.4-2.07-2.28-1.15.07-2.84.84-2.88-1.68-.04-2.42,1.51-1.97,2.75-1.82,2.14.25,2.24-.93,2.12-2.49-.34-4.45.8-8.29,4.07-11.58,2.94-2.97,10.11-2.39,12.54-1.02,1.18.66.94,1.56.57,2.21-.41.7-.79,1.64-2.28,1.22-1.49-.42-3.03-1.18-4.79-.62-4.3,1.35-7.03,7.17-5.28,11.4.39.94,1.08.73,1.72.74,2.2.03,4.4.07,6.59,0,1.36-.05,1.96.29,1.91,1.81-.04,1.33-.25,2.14-1.8,1.91-.29-.04-.6-.03-.9,0-2.45.21-5.8-1.12-7.12.54-1.23,1.55-.43,4.75-.44,7.22-.03,6.88,0,13.75-.02,20.63,0,1.55.68,3.32-2.26,3.34-3.07.02-2.43-1.82-2.43-3.5-.02-4.19,0-8.37,0-12.56Z"/>
      <path class="cls-1" d="m263.25,231.95c1.97-.39,2.81.32,2.54,2.2-.01.1-.01.2,0,.3.22,2.24-1.04,5.23.58,6.52,1.35,1.08,4.2.3,6.38.34,1,.01,2.01.06,3-.03,1.46-.13,1.58.69,1.57,1.83-.02,1.09-.01,1.93-1.53,1.88-2.6-.09-5.2.06-7.8-.05-1.63-.07-2.28.34-2.25,2.12.11,6.18-.04,12.37.07,18.56.12,6.79,3.26,8.56,9.35,5.4.64-.33,1.46-1.39,1.77-.12.26,1.1,1.91,2.67.38,3.42-2.59,1.27-4.87,3.47-8.39,2.48-5.15-1.45-7.67-4.03-7.78-9.41-.12-6.28-.19-12.58.02-18.86.09-2.74-.42-4.17-3.47-3.57-1.9.38-2.08-.74-2.02-2.25.09-2.17,1.73-1.35,2.64-1.27,2.19.19,3.13-.43,2.82-2.76-.2-1.47.04-2.99-.06-4.48-.1-1.72.24-2.84,2.18-2.24Z"/>
      <path class="cls-1" d="m583.7,247.03c2.81-3.58,6.17-5.84,10.48-6.64.96-.18,2.41-.82,2.26,1.15-.1,1.31.82,3.07-1.66,3.44-7,1.03-10.84,5.34-11.04,12.52-.15,5.48-.08,10.98-.01,16.46.02,1.75-.17,2.71-2.37,2.71-2.18,0-2.37-.91-2.36-2.67.06-10.38.05-20.76,0-31.13,0-1.7.07-2.73,2.32-2.71,2.15.03,2.54.88,2.39,2.68-.11,1.38-.02,2.78-.02,4.18Z"/>
      <path class="cls-1" d="m105.95,251.27c0,7.67-.05,15.33.04,23,.02,1.79-.47,2.39-2.33,2.41-1.94.02-2.29-.69-2.29-2.43.06-15.43.06-30.86,0-46.3,0-1.67.43-2.25,2.16-2.21,1.65.04,2.51.2,2.47,2.23-.12,7.76-.05,15.53-.05,23.3Z"/>
      <path class="cls-1" d="m1044.04,245.48c0,4.78-.02,9.57,0,14.35,0,1.46-.24,2.47-2.09,2.53-2.13.06-1.52-1.38-1.53-2.42-.09-9.38-.12-18.76-.24-28.14-.02-1.67.21-2.49,2.22-2.49,1.94,0,2.32.65,2.28,2.41-.11,4.58-.04,9.17-.04,13.76-.2,0-.4,0-.61,0Z"/>
      <path class="cls-1" d="m1045.23,273.99c.14,2.29-1.33,3.25-3.07,3.21-1.81-.04-3-1.33-2.94-3.33.06-2.06,1.39-2.53,3.19-2.59,2.06-.07,2.93.83,2.81,2.71Z"/>
    </g>
  </g>
</svg>